<!DOCTYPE svg PUBLIC "-//W3C//DTD SVG 1.1//EN" "http://www.w3.org/Graphics/SVG/1.1/DTD/svg11.dtd">
<!-- Uploaded to: SVG Repo, www.svgrepo.com, Transformed by: SVG Repo Mixer Tools -->
<svg height="800px" width="800px" version="1.1" id="Layer_1" xmlns="http://www.w3.org/2000/svg" xmlns:xlink="http://www.w3.org/1999/xlink" viewBox="0 0 512 512" xml:space="preserve" fill="#000000">
<g id="SVGRepo_bgCarrier" stroke-width="0"/>
<g id="SVGRepo_tracerCarrier" stroke-linecap="round" stroke-linejoin="round"/>
<g id="SVGRepo_iconCarrier"> <circle style="fill:#FFEDB5;" cx="256" cy="256" r="256"/> <path style="fill:#FEE187;" d="M487.605,365.166l-79.007-79.007l-66.691,50.576l-104.631-42.282h-70.92l-62.724,56.52 l160.871,160.871C363.208,508.621,447.769,449.533,487.605,365.166z"/> <path style="fill:#FFC61B;" d="M19.082,353.113C57.335,446.336,148.992,512,255.998,512s198.663-65.664,236.918-158.887 L19.082,353.113L19.082,353.113z"/> <path style="fill:#EAA22F;" d="M492.916,353.113H256V512C363.008,512,454.663,446.336,492.916,353.113z"/> <path style="fill:#D35933;" d="M319.593,367.001c-13.595,0-27.688-3.679-41.684-12.697c-9.704-6.251-18.261-12.924-26.538-19.378 c-17.094-13.328-30.596-23.857-45.518-24.417c-17.951-0.684-40.958,12.783-70.534,41.136c-8.937,8.566-23.121,8.263-31.687-0.671 c-8.564-8.935-8.264-23.121,0.671-31.687c39.343-37.716,72.113-54.787,103.234-53.569c29.387,1.105,50.745,17.758,71.396,33.863 c7.496,5.844,15.245,11.888,23.252,17.048c8.475,5.458,22.44,10.93,45.794-4.503c15.508-10.245,26.253-24.117,26.357-24.254 c7.485-9.859,21.54-11.786,31.401-4.303c9.859,7.483,11.785,21.542,4.303,31.401C393.749,336.431,358.762,367.001,319.593,367.001z"/> <path style="fill:#B54324;" d="M405.737,283.565c-9.861-7.483-23.916-5.556-31.401,4.303c-0.105,0.136-10.849,14.008-26.357,24.254 c-23.355,15.432-37.319,9.961-45.794,4.503c-8.009-5.16-15.758-11.204-23.252-17.048c-7.616-5.939-15.331-11.947-23.507-17.229 v55.727c7.03,5.454,14.352,10.988,22.483,16.225c13.996,9.018,28.089,12.697,41.684,12.697c39.171,0,74.157-30.568,90.448-52.034 C417.521,305.107,415.596,291.049,405.737,283.565z"/> <g> <path style="fill:#FF7F4F;" d="M104.303,319.286c-8.935,8.566-9.233,22.752-0.671,31.687c8.566,8.933,22.75,9.235,31.687,0.671 c7.32-7.016,14.233-13.115,20.771-18.32c-8.325-12.51-15.103-26.19-22.476-39.203C124.226,301.156,114.486,309.524,104.303,319.286 z"/> <path style="fill:#FF7F4F;" d="M207.538,265.718c-12.06-0.472-24.374,1.834-37.217,6.996c3.374,14.526,7.175,29.282,11.538,43.801 c8.864-4.277,16.837-6.28,23.997-6.008c3.991,0.15,7.882,1.033,11.764,2.47c2.42-15.034,3.648-30.23,6.115-44.978 C218.596,266.738,213.221,265.931,207.538,265.718z"/> </g> <path style="fill:#D35933;" d="M302.185,316.626c-8.009-5.16-15.758-11.204-23.252-17.048c-2.208-1.722-4.427-3.45-6.661-5.165 c-8.976,11.959-15.398,25.897-22.357,39.374c0.484,0.378,0.967,0.753,1.458,1.136c8.276,6.454,16.834,13.128,26.538,19.378 c4.942,3.186,9.897,5.691,14.838,7.618c2.544-14.676,8.087-29.351,11.529-44.027C303.547,317.478,302.847,317.052,302.185,316.626z"/> <path style="fill:#FF7F4F;" d="M249.913,333.788c0.484,0.378,0.967,0.753,1.458,1.136c1.377,1.074,2.765,2.155,4.161,3.238v-15.415 C253.659,326.428,251.804,330.124,249.913,333.788z"/> <path style="fill:#D35933;" d="M365.337,297.815c-4.498,4.468-10.45,9.745-17.356,14.308c-6.835,4.517-12.864,7.239-18.187,8.697 c4.117,14.055,9.132,28.174,13.478,42.579c21.187-6.311,39.967-20.015,53.626-33.563 C386.381,318.876,374.306,309.638,365.337,297.815z"/> </g>
</svg>