<svg width="1440" height="916" viewBox="0 0 1440 916" fill="none" xmlns="http://www.w3.org/2000/svg">
<path opacity="0.2" d="M1218.46 0H1329.23M1218.46 0V109.333M1218.46 0H1107.69M1329.23 0V109.333M1329.23 0H1440V109.333M1329.23 109.333H1218.46M1329.23 109.333H1440M1329.23 109.333V218.667M1218.46 109.333V218.667M1218.46 109.333H1107.69M1440 109.333V218.667M1329.23 218.667H1218.46M1329.23 218.667V328M1329.23 218.667H1440M1218.46 218.667V328M1218.46 218.667H1107.69M1329.23 328H1218.46M1329.23 328V437.333M1329.23 328H1440M1218.46 328V437.333M1218.46 328H1107.69M1329.23 437.333H1218.46M1329.23 437.333V546.667M1329.23 437.333H1440M1218.46 437.333V546.667M1218.46 437.333H1107.69M1329.23 546.667H1218.46M1329.23 546.667V656M1329.23 546.667H1440M1218.46 546.667V656M1218.46 546.667H1107.69M1329.23 656H1218.46M1329.23 656V765.333M1329.23 656H1440M1218.46 656V765.333M1218.46 656H1107.69M1329.23 765.333H1218.46M1329.23 765.333V874.667M1329.23 765.333H1440M1218.46 765.333V874.667M1218.46 765.333H1107.69M1329.23 874.667H1218.46M1329.23 874.667V984M1329.23 874.667H1440M1218.46 874.667V984M1218.46 874.667H1107.69M1329.23 984H1218.46M1329.23 984H1440V874.667M1218.46 984H1107.69M1440 218.667V328M1440 328V437.333M1440 437.333V546.667M1440 546.667V656M1440 656V765.333M1440 765.333V874.667M110.769 0H0V109.333M110.769 0V109.333M110.769 0H221.538M110.769 109.333H0M110.769 109.333H221.538M110.769 109.333V218.667M0 109.333V218.667M221.538 0V109.333M221.538 0H332.308M221.538 109.333H332.308M221.538 109.333V218.667M332.308 0V109.333M332.308 0H443.077M332.308 109.333H443.077M332.308 109.333V218.667M443.077 0V109.333M443.077 0H553.846M443.077 109.333H553.846M443.077 109.333V218.667M553.846 0V109.333M553.846 0H664.615M553.846 109.333H664.615M553.846 109.333V218.667M664.615 0V109.333M664.615 0H775.385M664.615 109.333H775.385M664.615 109.333V218.667M775.385 0V109.333M775.385 0H886.154M775.385 109.333H886.154M775.385 109.333V218.667M886.154 0V109.333M886.154 0H996.923M886.154 109.333H996.923M886.154 109.333V218.667M996.923 0V109.333M996.923 0H1107.69M996.923 109.333H1107.69M996.923 109.333V218.667M1107.69 0V109.333M1107.69 109.333V218.667M110.769 218.667H0M110.769 218.667V328M110.769 218.667H221.538M0 218.667V328M110.769 328H0M110.769 328V437.333M110.769 328H221.538M0 328V437.333M110.769 437.333H0M110.769 437.333V546.667M110.769 437.333H221.538M0 437.333V546.667M110.769 546.667H0M110.769 546.667V656M110.769 546.667H221.538M0 546.667V656M110.769 656H0M110.769 656V765.333M110.769 656H221.538M0 656V765.333M110.769 765.333H0M110.769 765.333V874.667M110.769 765.333H221.538M0 765.333V874.667M110.769 874.667H0M110.769 874.667V984M110.769 874.667H221.538M0 874.667V984H110.769M110.769 984H221.538M221.538 218.667V328M221.538 218.667H332.308M221.538 328V437.333M221.538 328H332.308M221.538 437.333V546.667M221.538 437.333H332.308M221.538 546.667V656M221.538 546.667H332.308M221.538 656V765.333M221.538 656H332.308M221.538 765.333V874.667M221.538 765.333H332.308M221.538 874.667V984M221.538 874.667H332.308M221.538 984H332.308M332.308 218.667V328M332.308 218.667H443.077M332.308 328V437.333M332.308 328H443.077M332.308 437.333V546.667M332.308 437.333H443.077M332.308 546.667V656M332.308 546.667H443.077M332.308 656V765.333M332.308 656H443.077M332.308 765.333V874.667M332.308 765.333H443.077M332.308 874.667V984M332.308 874.667H443.077M332.308 984H443.077M443.077 218.667V328M443.077 218.667H553.846M443.077 328V437.333M443.077 328H553.846M443.077 437.333V546.667M443.077 437.333H553.846M443.077 546.667V656M443.077 546.667H553.846M443.077 656V765.333M443.077 656H553.846M443.077 765.333V874.667M443.077 765.333H553.846M443.077 874.667V984M443.077 874.667H553.846M443.077 984H553.846M553.846 218.667V328M553.846 218.667H664.615M553.846 328V437.333M553.846 328H664.615M553.846 437.333V546.667M553.846 437.333H664.615M553.846 546.667V656M553.846 546.667H664.615M553.846 656V765.333M553.846 656H664.615M553.846 765.333V874.667M553.846 765.333H664.615M553.846 874.667V984M553.846 874.667H664.615M553.846 984H664.615M664.615 218.667V328M664.615 218.667H775.385M664.615 328V437.333M664.615 328H775.385M664.615 437.333V546.667M664.615 437.333H775.385M664.615 546.667V656M664.615 546.667H775.385M664.615 656V765.333M664.615 656H775.385M664.615 765.333V874.667M664.615 765.333H775.385M664.615 874.667V984M664.615 874.667H775.385M664.615 984H775.385M775.385 218.667V328M775.385 218.667H886.154M775.385 328V437.333M775.385 328H886.154M775.385 437.333V546.667M775.385 437.333H886.154M775.385 546.667V656M775.385 546.667H886.154M775.385 656V765.333M775.385 656H886.154M775.385 765.333V874.667M775.385 765.333H886.154M775.385 874.667V984M775.385 874.667H886.154M775.385 984H886.154M886.154 218.667V328M886.154 218.667H996.923M886.154 328V437.333M886.154 328H996.923M886.154 437.333V546.667M886.154 437.333H996.923M886.154 546.667V656M886.154 546.667H996.923M886.154 656V765.333M886.154 656H996.923M886.154 765.333V874.667M886.154 765.333H996.923M886.154 874.667V984M886.154 874.667H996.923M886.154 984H996.923M996.923 218.667V328M996.923 218.667H1107.69M996.923 328V437.333M996.923 328H1107.69M996.923 437.333V546.667M996.923 437.333H1107.69M996.923 546.667V656M996.923 546.667H1107.69M996.923 656V765.333M996.923 656H1107.69M996.923 765.333V874.667M996.923 765.333H1107.69M996.923 874.667V984M996.923 874.667H1107.69M996.923 984H1107.69M1107.69 218.667V328M1107.69 328V437.333M1107.69 437.333V546.667M1107.69 546.667V656M1107.69 656V765.333M1107.69 765.333V874.667M1107.69 874.667V984" stroke="url(#paint0_radial_112_188)" stroke-opacity="0.2" stroke-width="2.95679"/>
<defs>
<radialGradient id="paint0_radial_112_188" cx="0" cy="0" r="1" gradientUnits="userSpaceOnUse" gradientTransform="translate(720 492) rotate(90) scale(492 720)">
<stop stop-color="white"/>
<stop offset="1" stop-color="white" stop-opacity="0"/>
</radialGradient>
</defs>
</svg>
