<svg width="1129" height="1132" viewBox="0 0 1129 1132" fill="none" xmlns="http://www.w3.org/2000/svg">
<path d="M597.5 190.5V689.5H532.5V190.5H597.5Z" fill="#010000" stroke="white"/>
<path d="M394 443.25L544.5 356.359C556.876 349.214 572.124 349.214 584.5 356.359L735 443.25C748.796 451.216 755.455 465.362 754.976 479.294C754.779 485.01 753.382 490.689 750.782 495.891C747.471 502.518 742.21 508.369 735 512.532L584.5 599.424C578.461 602.91 571.739 604.695 565 604.779C557.928 604.868 550.837 603.082 544.5 599.424L394 512.532C386.79 508.369 381.529 502.518 378.218 495.891C375.612 490.676 374.213 484.981 374.023 479.25C373.559 465.332 380.218 451.207 394 443.25Z" fill="#59F2D1"/>
<path fill-rule="evenodd" clip-rule="evenodd" d="M544.5 635.424L394 548.532C381.115 541.093 374.456 528.262 374.023 515.25V512.532V479.25C374.213 484.981 375.612 490.676 378.218 495.891C381.529 502.518 386.79 508.369 394 512.532L544.5 599.424C550.837 603.082 557.928 604.868 565 604.779V640.779C557.928 640.868 550.837 639.082 544.5 635.424Z" fill="#2EBA9C"/>
<path d="M584.5 635.424L735 548.532C747.871 541.102 754.529 528.291 754.976 515.294V512.489V479.294C754.779 485.01 753.382 490.689 750.782 495.891C747.471 502.518 742.21 508.369 735 512.532L584.5 599.424C578.461 602.91 571.739 604.695 565 604.779V640.779C571.739 640.695 578.461 638.91 584.5 635.424Z" fill="#1A7261"/>
<path d="M735 548.532L584.5 635.424C578.461 638.91 571.739 640.695 565 640.779M735 548.532C748.796 540.567 755.455 526.421 754.976 512.489M735 548.532C747.871 541.102 754.529 528.291 754.976 515.294V512.489M374.023 479.25C373.559 465.332 380.218 451.207 394 443.25L544.5 356.359C556.876 349.214 572.124 349.214 584.5 356.359L735 443.25C748.796 451.216 755.455 465.362 754.976 479.294M374.023 479.25C374.213 484.981 375.612 490.676 378.218 495.891C381.529 502.518 386.79 508.369 394 512.532L544.5 599.424C550.837 603.082 557.928 604.868 565 604.779M374.023 479.25V512.532M374.023 515.294V515.25M754.976 479.25V479.294M754.976 512.489V479.294M754.976 479.294C754.779 485.01 753.382 490.689 750.782 495.891C747.471 502.518 742.21 508.369 735 512.532L584.5 599.424C578.461 602.91 571.739 604.695 565 604.779M374.023 512.532V515.25M374.023 512.532C373.992 513.438 373.992 514.345 374.023 515.25M374.023 515.25C374.456 528.262 381.115 541.093 394 548.532L544.5 635.424C550.837 639.082 557.928 640.868 565 640.779M565 640.779V604.779" stroke="black"/>
<path d="M423.535 444.699L547.965 372.456C558.197 366.515 570.803 366.515 581.035 372.456L705.465 444.699C716.871 451.321 722.376 463.083 721.98 474.666C721.818 479.418 720.662 484.141 718.513 488.466C715.775 493.975 711.426 498.84 705.465 502.301L581.035 574.544C576.135 577.389 570.691 578.872 565.223 578.992C559.273 579.123 553.297 577.64 547.965 574.544L423.535 502.301C417.574 498.84 413.225 493.975 410.487 488.466C408.333 484.13 407.176 479.394 407.019 474.63C406.635 463.058 412.141 451.314 423.535 444.699Z" fill="#010000" stroke="black"/>
<path d="M565 482C572.244 482 579.134 480.786 585.375 478.597V443.367L572.75 421.5V400.47V229H547.5H532V409.739V472.261C540.895 478.335 552.415 482 565 482Z" fill="black"/>
<path d="M585.375 478.597C589.977 476.983 594.225 474.839 598 472.261V409.739V229H572.75V400.47V421.5L585.375 443.367V478.597Z" fill="black"/>
<path d="M572.25 229.5V421.634L572.317 421.75L584.875 443.5V478.238C578.776 480.335 572.059 481.5 565 481.5C552.613 481.5 541.278 477.921 532.5 471.994V229.5H572.25ZM573.25 229.5H597.5V471.994C594 474.357 590.094 476.347 585.875 477.886V443.233L585.808 443.117L573.25 421.366V229.5Z" stroke="white"/>
<path d="M806.33 350.302L665.711 269.115C664.043 268.152 663.121 266.486 663.011 264.763C662.911 263.184 663.491 261.559 664.805 260.382C666.55 258.82 669.102 258.555 671.131 259.726L811.75 340.913C814.945 342.757 815.404 347.185 812.656 349.646C812.286 349.977 811.879 350.25 811.449 350.463C809.852 351.256 807.928 351.225 806.33 350.302Z" fill="black"/>
<path d="M663.011 264.763C663.121 266.486 664.043 268.152 665.711 269.115L806.33 350.302C807.928 351.225 809.852 351.256 811.449 350.463M663.011 264.763C662.911 263.184 663.491 261.559 664.805 260.382C666.55 258.82 669.102 258.555 671.131 259.726L811.75 340.913C814.945 342.757 815.404 347.185 812.656 349.646C812.286 349.977 811.879 350.25 811.449 350.463M663.011 264.763L811.449 350.463" stroke="white"/>
<path d="M324.67 350.302L465.289 269.115C466.957 268.152 467.879 266.486 467.989 264.763C468.089 263.184 467.509 261.559 466.195 260.382C464.45 258.82 461.898 258.555 459.869 259.726L319.25 340.913C316.055 342.757 315.596 347.185 318.344 349.646C318.714 349.977 319.121 350.25 319.551 350.463C321.148 351.256 323.072 351.225 324.67 350.302Z" fill="black"/>
<path d="M467.989 264.763C467.879 266.486 466.957 268.152 465.289 269.115L324.67 350.302C323.072 351.225 321.148 351.256 319.551 350.463M467.989 264.763C468.089 263.184 467.509 261.559 466.195 260.382C464.45 258.82 461.898 258.555 459.869 259.726L319.25 340.913C316.055 342.757 315.596 347.185 318.344 349.646C318.714 349.977 319.121 350.25 319.551 350.463M467.989 264.763L319.551 350.463" stroke="white"/>
<path d="M394 135.25L544.5 48.359C556.876 41.2137 572.124 41.2137 584.5 48.359L735 135.25C748.796 143.216 755.455 157.362 754.976 171.294C754.779 177.01 753.382 182.689 750.782 187.891C747.471 194.518 742.21 200.369 735 204.532L584.5 291.424C578.461 294.91 571.739 296.695 565 296.779C557.928 296.868 550.837 295.082 544.5 291.424L394 204.532C386.79 200.369 381.529 194.518 378.218 187.891C375.612 182.676 374.213 176.981 374.023 171.25C373.559 157.332 380.218 143.207 394 135.25Z" fill="#59F2D1"/>
<path fill-rule="evenodd" clip-rule="evenodd" d="M544.5 327.424L394 240.532C381.115 233.093 374.456 220.262 374.023 207.25V204.532V171.25C374.213 176.981 375.612 182.676 378.218 187.891C381.529 194.518 386.79 200.369 394 204.532L544.5 291.424C550.837 295.082 557.928 296.868 565 296.779V332.779C557.928 332.868 550.837 331.082 544.5 327.424Z" fill="#2EBA9C"/>
<path d="M584.5 327.424L735 240.532C747.871 233.102 754.529 220.291 754.976 207.294V204.489V171.294C754.779 177.01 753.382 182.689 750.782 187.891C747.471 194.518 742.21 200.369 735 204.532L584.5 291.424C578.461 294.91 571.739 296.695 565 296.779V332.779C571.739 332.695 578.461 330.91 584.5 327.424Z" fill="#1A7261"/>
<path d="M735 240.532L584.5 327.424C578.461 330.91 571.739 332.695 565 332.779M735 240.532C748.796 232.567 755.455 218.421 754.976 204.489M735 240.532C747.871 233.102 754.529 220.291 754.976 207.294V204.489M374.023 171.25C373.559 157.332 380.218 143.207 394 135.25L544.5 48.359C556.876 41.2137 572.124 41.2137 584.5 48.359L735 135.25C748.796 143.216 755.455 157.362 754.976 171.294M374.023 171.25C374.213 176.981 375.612 182.676 378.218 187.891C381.529 194.518 386.79 200.369 394 204.532L544.5 291.424C550.837 295.082 557.928 296.868 565 296.779M374.023 171.25V204.532M374.023 207.294V207.25M754.976 171.25V171.294M754.976 204.489V171.294M754.976 171.294C754.779 177.01 753.382 182.689 750.782 187.891C747.471 194.518 742.21 200.369 735 204.532L584.5 291.424C578.461 294.91 571.739 296.695 565 296.779M374.023 204.532V207.25M374.023 204.532C373.992 205.438 373.992 206.345 374.023 207.25M374.023 207.25C374.456 220.262 381.115 233.093 394 240.532L544.5 327.424C550.837 331.082 557.928 332.868 565 332.779M565 332.779V296.779" stroke="black"/>
<path d="M466.957 106.776L553.057 57.0658C560.138 52.9781 568.861 52.9781 575.941 57.0658L662.041 106.776C669.934 111.333 673.743 119.426 673.469 127.396C673.357 130.666 672.557 133.915 671.07 136.891C669.176 140.682 666.166 144.03 662.041 146.411L575.941 196.121C572.55 198.079 568.783 199.099 565 199.182C560.883 199.272 556.747 198.251 553.057 196.121L466.957 146.411C462.832 144.03 459.823 140.682 457.929 136.891C456.438 133.908 455.638 130.649 455.529 127.371C455.263 119.409 459.073 111.328 466.957 106.776Z" fill="#59F2D1"/>
<path fill-rule="evenodd" clip-rule="evenodd" d="M553.057 232.717L466.957 183.007C459.586 178.751 455.776 171.411 455.529 163.966V162.411V127.371C455.638 130.649 456.438 133.908 457.929 136.891C459.823 140.682 462.832 144.03 466.957 146.411L553.057 196.121C556.747 198.251 560.883 199.272 565 199.182V235.777C560.883 235.867 556.747 234.847 553.057 232.717Z" fill="#2EBA9C"/>
<path d="M575.941 232.717L662.041 183.007C669.404 178.756 673.214 171.427 673.469 163.992V162.386V127.396C673.357 130.666 672.557 133.915 671.07 136.891C669.176 140.682 666.166 144.03 662.041 146.411L575.941 196.121C572.55 198.079 568.783 199.099 565 199.182V235.777C568.783 235.694 572.55 234.674 575.941 232.717Z" fill="#1A7360"/>
<path d="M662.041 183.007L575.941 232.717C572.55 234.674 568.783 235.694 565 235.777M662.041 183.007C669.934 178.45 673.743 170.357 673.469 162.386M662.041 183.007C669.404 178.756 673.214 171.427 673.469 163.992V162.386M455.529 127.371C455.263 119.409 459.073 111.328 466.957 106.776L553.057 57.0658C560.138 52.9781 568.861 52.9781 575.941 57.0658L662.041 106.776C669.934 111.333 673.743 119.426 673.469 127.396M455.529 127.371C455.638 130.649 456.438 133.908 457.929 136.891C459.823 140.682 462.832 144.03 466.957 146.411L553.057 196.121C556.747 198.251 560.883 199.272 565 199.182M455.529 127.371V162.411M455.529 163.992V163.966M673.469 127.371V127.396M673.469 162.386V127.396M673.469 127.396C673.357 130.666 672.557 133.915 671.07 136.891C669.176 140.682 666.166 144.03 662.041 146.411L575.941 196.121C572.55 198.079 568.783 199.099 565 199.182M455.529 162.411V163.966M455.529 162.411C455.511 162.93 455.511 163.448 455.529 163.966M455.529 163.966C455.776 171.411 459.586 178.751 466.957 183.007L553.057 232.717C556.747 234.847 560.883 235.867 565 235.777M565 235.777V199.182" stroke="black"/>
<path d="M488.871 111.169L555.629 72.4799C561.118 69.2984 567.882 69.2984 573.371 72.4799L640.129 111.169C646.248 114.716 649.202 121.015 648.989 127.218C648.902 129.763 648.282 132.292 647.129 134.609C645.66 137.559 643.327 140.165 640.129 142.018L573.371 180.708C570.742 182.231 567.821 183.025 564.888 183.09C561.696 183.159 558.489 182.366 555.629 180.708L488.871 142.018C485.673 140.165 483.34 137.559 481.871 134.609C480.715 132.286 480.095 129.75 480.01 127.199C479.804 121.002 482.758 114.712 488.871 111.169Z" fill="#FFECB8" stroke="black"/>
<ellipse cx="10" cy="8" rx="10" ry="8" transform="matrix(1 0 0 -1 507 134.5)" fill="#FF887A"/>
<ellipse cx="10" cy="8" rx="10" ry="8" transform="matrix(1 0 0 -1 603 134.5)" fill="#FF887A"/>
<ellipse cx="10" cy="8" rx="10" ry="8" transform="matrix(1 0 0 -1 579 142.5)" fill="#FF887A"/>
<ellipse cx="10" cy="8" rx="10" ry="8" transform="matrix(1 0 0 -1 555 134.5)" fill="#FF887A"/>
<ellipse cx="10" cy="8" rx="10" ry="8" transform="matrix(1 0 0 -1 531 126.5)" fill="#FF887A"/>
<g filter="url(#filter0_f_258_2309)">
<path d="M426.5 48L484.5 139.5L563.5 193.5L643.5 139.5L687 48H426.5Z" fill="url(#paint0_linear_258_2309)"/>
</g>
<path d="M447 351.25L296.5 264.359C284.124 257.214 268.876 257.214 256.5 264.359L106 351.25C92.2038 359.216 85.5451 373.362 86.024 387.294C86.2205 393.01 87.6184 398.689 90.2176 403.891C93.5287 410.518 98.7895 416.369 106 420.532L256.5 507.424C262.539 510.91 269.261 512.695 276 512.779C283.072 512.868 290.163 511.082 296.5 507.424L447 420.532C454.21 416.369 459.471 410.518 462.782 403.891C465.388 398.676 466.787 392.981 466.977 387.25C467.441 373.332 460.782 359.207 447 351.25Z" fill="#59F2D1"/>
<path fill-rule="evenodd" clip-rule="evenodd" d="M296.5 543.424L447 456.532C459.885 449.093 466.544 436.262 466.977 423.25V420.532V387.25C466.787 392.981 465.388 398.676 462.782 403.891C459.471 410.518 454.21 416.369 447 420.532L296.5 507.424C290.163 511.082 283.072 512.868 276 512.779V548.779C283.072 548.868 290.163 547.082 296.5 543.424Z" fill="#2EBA9C"/>
<path d="M256.5 543.424L106 456.532C93.1295 449.102 86.4708 436.291 86.024 423.294V420.489V387.294C86.2205 393.01 87.6184 398.689 90.2176 403.891C93.5287 410.518 98.7895 416.369 106 420.532L256.5 507.424C262.539 510.91 269.261 512.695 276 512.779V548.779C269.261 548.695 262.539 546.91 256.5 543.424Z" fill="#1A7261"/>
<path d="M106 456.532L256.5 543.424C262.539 546.91 269.261 548.695 276 548.779M106 456.532C92.2038 448.567 85.5451 434.421 86.024 420.489M106 456.532C93.1295 449.102 86.4708 436.291 86.024 423.294V420.489M466.977 387.25C467.441 373.332 460.782 359.207 447 351.25L296.5 264.359C284.124 257.214 268.876 257.214 256.5 264.359L106 351.25C92.2038 359.216 85.5451 373.362 86.024 387.294M466.977 387.25C466.787 392.981 465.388 398.676 462.782 403.891C459.471 410.518 454.21 416.369 447 420.532L296.5 507.424C290.163 511.082 283.072 512.868 276 512.779M466.977 387.25V420.532M466.977 423.294V423.25M86.024 387.25V387.294M86.024 420.489V387.294M86.024 387.294C86.2205 393.01 87.6184 398.689 90.2176 403.891C93.5287 410.518 98.7895 416.369 106 420.532L256.5 507.424C262.539 510.91 269.261 512.695 276 512.779M466.977 420.532V423.25M466.977 420.532C467.008 421.438 467.008 422.345 466.977 423.25M466.977 423.25C466.544 436.262 459.885 449.093 447 456.532L296.5 543.424C290.163 547.082 283.072 548.868 276 548.779M276 548.779V512.779" stroke="black"/>
<path d="M134.535 356.699L258.965 284.456C269.197 278.515 281.803 278.515 292.035 284.456L416.465 356.699C427.871 363.321 433.376 375.083 432.98 386.666C432.818 391.418 431.662 396.141 429.513 400.466C426.775 405.975 422.426 410.84 416.465 414.301L292.035 486.544C287.135 489.389 281.691 490.872 276.223 490.992C270.273 491.123 264.297 489.64 258.965 486.544L134.535 414.301C128.574 410.84 124.225 405.975 121.487 400.466C119.333 396.13 118.176 391.394 118.019 386.63C117.635 375.058 123.141 363.314 134.535 356.699Z" fill="#131313" stroke="black"/>
<path d="M682 351.25L832.5 264.359C844.876 257.214 860.124 257.214 872.5 264.359L1023 351.25C1036.8 359.216 1043.45 373.362 1042.98 387.294C1042.78 393.01 1041.38 398.689 1038.78 403.891C1035.47 410.518 1030.21 416.369 1023 420.532L872.5 507.424C866.461 510.91 859.739 512.695 853 512.779C845.928 512.868 838.837 511.082 832.5 507.424L682 420.532C674.79 416.369 669.529 410.518 666.218 403.891C663.612 398.676 662.213 392.981 662.023 387.25C661.559 373.332 668.218 359.207 682 351.25Z" fill="#59F2D1"/>
<path fill-rule="evenodd" clip-rule="evenodd" d="M832.5 543.424L682 456.532C669.115 449.093 662.456 436.262 662.023 423.25V420.532V387.25C662.213 392.981 663.612 398.676 666.218 403.891C669.529 410.518 674.79 416.369 682 420.532L832.5 507.424C838.837 511.082 845.928 512.868 853 512.779V548.779C845.928 548.868 838.837 547.082 832.5 543.424Z" fill="#2EBA9C"/>
<path d="M872.5 543.424L1023 456.532C1035.87 449.102 1042.53 436.291 1042.98 423.294V420.489V387.294C1042.78 393.01 1041.38 398.689 1038.78 403.891C1035.47 410.518 1030.21 416.369 1023 420.532L872.5 507.424C866.461 510.91 859.739 512.695 853 512.779V548.779C859.739 548.695 866.461 546.91 872.5 543.424Z" fill="#1A7261"/>
<path d="M1023 456.532L872.5 543.424C866.461 546.91 859.739 548.695 853 548.779M1023 456.532C1036.8 448.567 1043.45 434.421 1042.98 420.489M1023 456.532C1035.87 449.102 1042.53 436.291 1042.98 423.294V420.489M662.023 387.25C661.559 373.332 668.218 359.207 682 351.25L832.5 264.359C844.876 257.214 860.124 257.214 872.5 264.359L1023 351.25C1036.8 359.216 1043.45 373.362 1042.98 387.294M662.023 387.25C662.213 392.981 663.612 398.676 666.218 403.891C669.529 410.518 674.79 416.369 682 420.532L832.5 507.424C838.837 511.082 845.928 512.868 853 512.779M662.023 387.25V420.532M662.023 423.294V423.25M1042.98 387.25V387.294M1042.98 420.489V387.294M1042.98 387.294C1042.78 393.01 1041.38 398.689 1038.78 403.891C1035.47 410.518 1030.21 416.369 1023 420.532L872.5 507.424C866.461 510.91 859.739 512.695 853 512.779M662.023 420.532V423.25M662.023 420.532C661.992 421.438 661.992 422.345 662.023 423.25M662.023 423.25C662.456 436.262 669.115 449.093 682 456.532L832.5 543.424C838.837 547.082 845.928 548.868 853 548.779M853 548.779V512.779" stroke="black"/>
<path d="M711.535 356.699L835.965 284.456C846.197 278.515 858.803 278.515 869.035 284.456L993.465 356.699C1004.87 363.321 1010.38 375.083 1009.98 386.666C1009.82 391.418 1008.66 396.141 1006.51 400.466C1003.78 405.975 999.426 410.84 993.465 414.301L869.035 486.544C864.135 489.389 858.691 490.872 853.223 490.992C847.273 491.123 841.297 489.64 835.965 486.544L711.535 414.301C705.574 410.84 701.225 405.975 698.487 400.466C696.333 396.13 695.176 391.394 695.019 386.63C694.635 375.058 700.141 363.314 711.535 356.699Z" fill="#131313" stroke="black"/>
<g filter="url(#filter1_f_258_2309)">
<rect x="86" y="259" width="957" height="737" fill="url(#paint1_linear_258_2309)"/>
</g>
<defs>
<filter id="filter0_f_258_2309" x="378.7" y="0.200001" width="356.1" height="241.1" filterUnits="userSpaceOnUse" color-interpolation-filters="sRGB">
<feFlood flood-opacity="0" result="BackgroundImageFix"/>
<feBlend mode="normal" in="SourceGraphic" in2="BackgroundImageFix" result="shape"/>
<feGaussianBlur stdDeviation="23.9" result="effect1_foregroundBlur_258_2309"/>
</filter>
<filter id="filter1_f_258_2309" x="0.800003" y="173.8" width="1127.4" height="907.4" filterUnits="userSpaceOnUse" color-interpolation-filters="sRGB">
<feFlood flood-opacity="0" result="BackgroundImageFix"/>
<feBlend mode="normal" in="SourceGraphic" in2="BackgroundImageFix" result="shape"/>
<feGaussianBlur stdDeviation="42.6" result="effect1_foregroundBlur_258_2309"/>
</filter>
<linearGradient id="paint0_linear_258_2309" x1="556.75" y1="48" x2="556.75" y2="193.5" gradientUnits="userSpaceOnUse">
<stop stop-color="white" stop-opacity="0"/>
<stop offset="1" stop-color="#FFFFEB" stop-opacity="0.2"/>
</linearGradient>
<linearGradient id="paint1_linear_258_2309" x1="564.5" y1="539.906" x2="564.5" y2="349" gradientUnits="userSpaceOnUse">
<stop offset="0.354876" stop-color="#F5F8FF"/>
<stop offset="1" stop-color="#F5F8FF" stop-opacity="0"/>
</linearGradient>
</defs>
</svg>
