<svg width="1052" height="216" viewBox="0 0 1052 216" fill="none" xmlns="http://www.w3.org/2000/svg">
<g filter="url(#filter0_ddi_258_2192)">
<g clip-path="url(#clip0_258_2192)">
<rect x="6" y="61.7085" width="96" height="96" rx="13.7143" transform="rotate(-16.1536 6 61.7085)" fill="white"/>
<g filter="url(#filter1_d_258_2192)">
<g clip-path="url(#clip1_258_2192)">
<path d="M74.3626 125.196C91.338 120.279 101.113 102.532 96.1964 85.5564C91.2795 68.5811 73.5323 58.8057 56.5569 63.7226C39.5816 68.6396 29.8062 86.3867 34.7232 103.362C39.6401 120.337 57.3872 130.113 74.3626 125.196Z" fill="#627EEA"/>
<path d="M59.7422 71.1292L64.6777 88.1688L80.9438 90.4327L59.7422 71.1292Z" fill="white" fill-opacity="0.602"/>
<path d="M59.7399 71.1297L52.1355 98.7768L64.6754 88.1693L59.7399 71.1297Z" fill="white"/>
<path d="M69.7399 105.646L73.0935 117.225L81.73 93.1118L69.7399 105.646Z" fill="white" fill-opacity="0.602"/>
<path d="M73.0912 117.225L69.7371 105.645L52.9121 101.459L73.0912 117.225Z" fill="white"/>
<path d="M68.9628 102.967L80.9427 90.4327L64.6777 88.1726L68.9628 102.967Z" fill="white" fill-opacity="0.2"/>
<path d="M52.1364 98.7769L68.9624 102.967L64.6774 88.1731L52.1364 98.7769Z" fill="white" fill-opacity="0.602"/>
</g>
</g>
</g>
<rect x="6.70785" y="62.0984" width="94.8571" height="94.8571" rx="13.1429" transform="rotate(-16.1536 6.70785 62.0984)" stroke="url(#paint0_linear_258_2192)" stroke-width="1.14286"/>
</g>
<g filter="url(#filter2_ddi_258_2192)">
<g clip-path="url(#clip2_258_2192)">
<rect x="900" y="34.3174" width="96" height="96" rx="13.7143" transform="rotate(-11.7832 900 34.3174)" fill="white"/>
<g filter="url(#filter3_d_258_2192)">
<path d="M963.819 67.4789L966.994 58.1141L984.545 75.9834L985.378 79.9419L979.65 52.7032C979.48 52.0434 978.999 51.5077 978.36 51.2659L951.648 42.5228C951.034 42.3648 950.326 42.5158 949.828 42.9115C949.761 42.9651 949.699 43.0206 949.64 43.0796L949.568 43.1492L929.216 61.3938L929.135 61.4538C929.03 61.5306 928.928 61.6228 928.834 61.724C928.461 62.1302 928.267 62.6568 928.281 63.1982C928.284 63.2801 928.29 63.3631 928.302 63.4455L932.97 85.6421L941.32 63.9434C942.344 61.0835 945.559 59.56 948.711 58.9493L952.418 58.2773L937.959 97.657L940.828 98.5974L955.247 57.7241L964.96 55.6611L950.788 97.4384L961.024 100.789L962.247 101.189C962.748 101.28 963.295 101.176 963.725 100.911L984.987 81.8496L980.922 85.4938L963.819 67.4789ZM971.328 94.0951L959.074 81.5318L962.715 70.7938L978.824 87.3738L971.328 94.0951Z" fill="#2D374B"/>
<path d="M959.077 81.5321L971.331 94.0949L978.827 87.3741L962.717 70.7939L959.077 81.5321Z" fill="#28A0F0"/>
<path d="M985.38 79.9418L984.548 75.9835L966.997 58.1142L963.822 67.4789L980.925 85.4938L984.99 81.8497C985.366 81.387 985.528 80.7889 985.435 80.1999L985.38 79.9418Z" fill="#28A0F0"/>
<path d="M930.644 95.257L937.958 97.6573L952.418 58.2778L948.71 58.9498C945.559 59.5607 942.344 61.0838 941.32 63.9437L932.97 85.6426L930.149 92.8868L930.644 95.257Z" fill="white"/>
<path d="M964.959 55.6616L955.247 57.7245L940.827 98.5976L949.436 101.419L950.786 97.4387L964.959 55.6616Z" fill="white"/>
<path d="M983.758 51.6876C983.252 49.6719 981.764 48.0411 979.814 47.3172L952.753 38.4622C950.868 37.9593 948.738 38.4024 947.209 39.6182C947.028 39.762 926.551 58.1325 926.551 58.1325C926.26 58.3541 925.988 58.603 925.74 58.873C924.431 60.2973 923.851 62.2069 924.147 64.1097L930.15 92.8869L932.971 85.6427L928.302 63.4457C928.29 63.3635 928.284 63.2811 928.281 63.1995C928.266 62.6573 928.461 62.1307 928.834 61.7242C928.928 61.6229 949.76 42.9654 949.828 42.9118C950.327 42.5159 951.033 42.3651 951.648 42.523L978.36 51.2662C978.999 51.5079 979.48 52.0436 979.65 52.7034L985.388 80.209C985.481 80.798 985.363 81.3869 984.986 81.8495L980.921 85.4937L978.824 87.3741L971.327 94.0948L963.725 100.91C963.294 101.176 962.747 101.28 962.247 101.189L950.787 97.4381L949.436 101.419L959.736 104.795C960.076 104.904 960.379 105.001 960.627 105.08C961.012 105.201 961.274 105.281 961.365 105.304C962.084 105.485 963.063 105.474 963.91 105.297C964.687 105.135 965.415 104.834 966.074 104.404L988.158 84.6175C989.366 83.1995 989.863 81.3379 989.559 79.4973L983.758 51.6876Z" fill="#96BEDC"/>
</g>
</g>
<rect x="900.676" y="34.7601" width="94.8571" height="94.8571" rx="13.1429" transform="rotate(-11.7832 900.676 34.7601)" stroke="url(#paint1_linear_258_2192)" stroke-width="1.14286"/>
</g>
<g filter="url(#filter4_ddi_258_2192)">
<g clip-path="url(#clip3_258_2192)">
<rect x="389" y="23.4854" width="96" height="96" rx="13.7143" transform="rotate(15.5109 389 23.4854)" fill="white"/>
<g clip-path="url(#clip4_258_2192)">
<g filter="url(#filter5_d_258_2192)">
<path d="M416.606 70.3175L411.24 64.8267L388.957 70.6473L382.791 92.8635L398.899 109.297L421.172 103.515L430.76 68.9651L443.12 65.7535L452.057 74.8757L448.634 87.2095L436.274 90.4211L430.909 84.9304L428.166 94.8128L433.532 100.304L455.805 94.5213L461.97 72.3051L445.863 55.8711L423.59 61.6534L414.001 96.2034L401.641 99.415L392.704 90.2929L396.138 77.9207L408.498 74.7091L413.863 80.1998L416.606 70.3175Z" fill="#6C00FE"/>
</g>
</g>
</g>
<rect x="389.398" y="24.1888" width="94.8571" height="94.8571" rx="13.1429" transform="rotate(15.5109 389.398 24.1888)" stroke="url(#paint2_linear_258_2192)" stroke-width="1.14286"/>
</g>
<g filter="url(#filter6_ddi_258_2192)">
<rect x="567" y="56" width="96" height="96" rx="13.7143" transform="rotate(9.0148 567 56)" fill="white"/>
<rect x="567.475" y="56.6539" width="94.8571" height="94.8571" rx="13.1429" transform="rotate(9.0148 567.475 56.6539)" stroke="url(#paint3_linear_258_2192)" stroke-width="1.14286"/>
<g filter="url(#filter7_d_258_2192)">
<g clip-path="url(#clip5_258_2192)">
<path d="M601.872 142.533C619.326 145.302 635.721 133.397 638.49 115.942C641.26 98.4874 629.354 82.0926 611.9 79.3234C594.445 76.5542 578.05 88.4592 575.281 105.914C572.512 123.369 584.417 139.764 601.872 142.533Z" fill="#FCFF52"/>
<path fill-rule="evenodd" clip-rule="evenodd" d="M627.387 95.9383L592.025 90.3281L586.379 125.92L621.743 131.531L623.714 119.106L617.846 118.175C615.104 122.388 610.05 124.821 604.839 123.994C597.656 122.854 592.775 116.025 593.914 108.847C595.053 101.666 601.8 96.7337 608.983 97.8733C614.295 98.716 618.332 102.698 619.619 107.65L625.387 108.565L627.39 95.9387L627.387 95.9383Z" fill="black"/>
</g>
</g>
</g>
<g filter="url(#filter8_ddi_258_2192)">
<rect x="196" y="15.4949" width="96" height="96" rx="13.7143" transform="rotate(-0.277838 196 15.4949)" fill="white"/>
<rect x="196.574" y="16.0635" width="94.8571" height="94.8571" rx="13.1429" transform="rotate(-0.277838 196.574 16.0635)" stroke="url(#paint4_linear_258_2192)" stroke-width="1.14286"/>
<g filter="url(#filter9_d_258_2192)">
<rect x="212.078" y="31.4165" width="64" height="64" rx="4.57143" transform="rotate(-0.277181 212.078 31.4165)" fill="url(#paint5_linear_258_2192)"/>
</g>
</g>
<g filter="url(#filter10_ddi_258_2192)">
<rect x="733" y="84.1445" width="96" height="96" rx="13.7143" transform="rotate(0.389865 733 84.1445)" fill="white"/>
<rect x="733.568" y="84.7198" width="94.8571" height="94.8571" rx="13.1429" transform="rotate(0.389865 733.568 84.7198)" stroke="url(#paint6_linear_258_2192)" stroke-width="1.14286"/>
<g filter="url(#filter11_d_258_2192)">
<g clip-path="url(#clip6_258_2192)">
<path d="M780.454 164.469C798.127 164.589 812.551 150.36 812.671 132.688C812.792 115.015 798.563 100.591 780.89 100.471C763.217 100.35 748.793 114.579 748.673 132.252C748.553 149.925 762.782 164.349 780.454 164.469Z" fill="#FF0420"/>
<path d="M771.287 140.911C769.381 140.898 767.823 140.439 766.613 139.534C765.418 138.614 764.826 137.313 764.838 135.632C764.84 135.279 764.883 134.847 764.967 134.335C765.183 133.184 765.488 131.801 765.884 130.186C767.002 125.791 769.827 123.608 774.359 123.639C775.592 123.648 776.695 123.863 777.669 124.286C778.643 124.693 779.407 125.307 779.962 126.127C780.517 126.931 780.791 127.894 780.783 129.015C780.781 129.351 780.738 129.775 780.654 130.287C780.404 131.71 780.107 133.093 779.761 134.436C779.186 136.626 778.206 138.26 776.822 139.34C775.437 140.403 773.593 140.927 771.287 140.911ZM771.647 137.455C772.543 137.461 773.306 137.202 773.934 136.678C774.578 136.154 775.04 135.349 775.319 134.262C775.698 132.759 775.987 131.448 776.187 130.329C776.253 129.993 776.287 129.649 776.29 129.296C776.3 127.839 775.544 127.106 774.023 127.095C773.126 127.089 772.356 127.348 771.712 127.872C771.084 128.397 770.63 129.202 770.35 130.289C770.055 131.36 769.758 132.671 769.459 134.222C769.393 134.542 769.358 134.878 769.356 135.23C769.346 136.703 770.11 137.445 771.647 137.455Z" fill="white"/>
<path d="M781.805 140.743C781.629 140.742 781.494 140.685 781.398 140.572C781.319 140.443 781.296 140.299 781.329 140.139L784.75 124.551C784.783 124.375 784.872 124.231 785.017 124.12C785.162 124.009 785.314 123.954 785.474 123.955L791.863 123.999C793.64 124.011 795.063 124.389 796.13 125.132C797.214 125.876 797.751 126.945 797.742 128.338C797.739 128.738 797.688 129.154 797.589 129.586C797.177 131.424 796.359 132.78 795.136 133.652C793.929 134.525 792.277 134.954 790.179 134.939L786.937 134.917L785.796 140.17C785.763 140.345 785.674 140.489 785.529 140.6C785.384 140.711 785.232 140.766 785.072 140.765L781.805 140.743ZM790.37 131.626C791.042 131.631 791.628 131.451 792.127 131.086C792.642 130.721 792.982 130.195 793.146 129.507C793.196 129.235 793.222 128.996 793.223 128.787C793.227 128.323 793.093 127.97 792.822 127.728C792.552 127.47 792.088 127.339 791.432 127.334L788.55 127.315L787.608 131.607L790.37 131.626Z" fill="white"/>
</g>
</g>
</g>
<defs>
<filter id="filter0_ddi_258_2192" x="-2.57143" y="20.7143" width="168.061" height="168.061" filterUnits="userSpaceOnUse" color-interpolation-filters="sRGB">
<feFlood flood-opacity="0" result="BackgroundImageFix"/>
<feColorMatrix in="SourceAlpha" type="matrix" values="0 0 0 0 0 0 0 0 0 0 0 0 0 0 0 0 0 0 127 0" result="hardAlpha"/>
<feMorphology radius="2.28571" operator="erode" in="SourceAlpha" result="effect1_dropShadow_258_2192"/>
<feOffset dx="16" dy="10.2857"/>
<feGaussianBlur stdDeviation="13.4286"/>
<feComposite in2="hardAlpha" operator="out"/>
<feColorMatrix type="matrix" values="0 0 0 0 0.421679 0 0 0 0 0.432779 0 0 0 0 0.554875 0 0 0 0.25 0"/>
<feBlend mode="normal" in2="BackgroundImageFix" result="effect1_dropShadow_258_2192"/>
<feColorMatrix in="SourceAlpha" type="matrix" values="0 0 0 0 0 0 0 0 0 0 0 0 0 0 0 0 0 0 127 0" result="hardAlpha"/>
<feMorphology radius="13.1429" operator="erode" in="SourceAlpha" result="effect2_dropShadow_258_2192"/>
<feOffset dx="16" dy="10.2857"/>
<feGaussianBlur stdDeviation="3.2"/>
<feComposite in2="hardAlpha" operator="out"/>
<feColorMatrix type="matrix" values="0 0 0 0 0.713712 0 0 0 0 0.7202 0 0 0 0 0.791579 0 0 0 0.45 0"/>
<feBlend mode="normal" in2="effect1_dropShadow_258_2192" result="effect2_dropShadow_258_2192"/>
<feBlend mode="normal" in="SourceGraphic" in2="effect2_dropShadow_258_2192" result="shape"/>
<feColorMatrix in="SourceAlpha" type="matrix" values="0 0 0 0 0 0 0 0 0 0 0 0 0 0 0 0 0 0 127 0" result="hardAlpha"/>
<feMorphology radius="8.57143" operator="dilate" in="SourceAlpha" result="effect3_innerShadow_258_2192"/>
<feOffset dx="1.14286" dy="-4"/>
<feGaussianBlur stdDeviation="10.4"/>
<feComposite in2="hardAlpha" operator="arithmetic" k2="-1" k3="1"/>
<feColorMatrix type="matrix" values="0 0 0 0 0.423529 0 0 0 0 0.431373 0 0 0 0 0.552941 0 0 0 0.4 0"/>
<feBlend mode="normal" in2="shape" result="effect3_innerShadow_258_2192"/>
</filter>
<filter id="filter1_d_258_2192" x="24.3203" y="52.8198" width="87.2793" height="87.2788" filterUnits="userSpaceOnUse" color-interpolation-filters="sRGB">
<feFlood flood-opacity="0" result="BackgroundImageFix"/>
<feColorMatrix in="SourceAlpha" type="matrix" values="0 0 0 0 0 0 0 0 0 0 0 0 0 0 0 0 0 0 127 0" result="hardAlpha"/>
<feOffset dx="2.5" dy="2"/>
<feGaussianBlur stdDeviation="2"/>
<feComposite in2="hardAlpha" operator="out"/>
<feColorMatrix type="matrix" values="0 0 0 0 0.423529 0 0 0 0 0.431373 0 0 0 0 0.552941 0 0 0 0.25 0"/>
<feBlend mode="normal" in2="BackgroundImageFix" result="effect1_dropShadow_258_2192"/>
<feBlend mode="normal" in="SourceGraphic" in2="effect1_dropShadow_258_2192" result="shape"/>
</filter>
<filter id="filter2_ddi_258_2192" x="891.429" y="0.427665" width="162.723" height="162.724" filterUnits="userSpaceOnUse" color-interpolation-filters="sRGB">
<feFlood flood-opacity="0" result="BackgroundImageFix"/>
<feColorMatrix in="SourceAlpha" type="matrix" values="0 0 0 0 0 0 0 0 0 0 0 0 0 0 0 0 0 0 127 0" result="hardAlpha"/>
<feMorphology radius="2.28571" operator="erode" in="SourceAlpha" result="effect1_dropShadow_258_2192"/>
<feOffset dx="16" dy="10.2857"/>
<feGaussianBlur stdDeviation="13.4286"/>
<feComposite in2="hardAlpha" operator="out"/>
<feColorMatrix type="matrix" values="0 0 0 0 0.421679 0 0 0 0 0.432779 0 0 0 0 0.554875 0 0 0 0.25 0"/>
<feBlend mode="normal" in2="BackgroundImageFix" result="effect1_dropShadow_258_2192"/>
<feColorMatrix in="SourceAlpha" type="matrix" values="0 0 0 0 0 0 0 0 0 0 0 0 0 0 0 0 0 0 127 0" result="hardAlpha"/>
<feMorphology radius="13.1429" operator="erode" in="SourceAlpha" result="effect2_dropShadow_258_2192"/>
<feOffset dx="16" dy="10.2857"/>
<feGaussianBlur stdDeviation="3.2"/>
<feComposite in2="hardAlpha" operator="out"/>
<feColorMatrix type="matrix" values="0 0 0 0 0.713712 0 0 0 0 0.7202 0 0 0 0 0.791579 0 0 0 0.45 0"/>
<feBlend mode="normal" in2="effect1_dropShadow_258_2192" result="effect2_dropShadow_258_2192"/>
<feBlend mode="normal" in="SourceGraphic" in2="effect2_dropShadow_258_2192" result="shape"/>
<feColorMatrix in="SourceAlpha" type="matrix" values="0 0 0 0 0 0 0 0 0 0 0 0 0 0 0 0 0 0 127 0" result="hardAlpha"/>
<feMorphology radius="8.57143" operator="dilate" in="SourceAlpha" result="effect3_innerShadow_258_2192"/>
<feOffset dx="1.14286" dy="-4"/>
<feGaussianBlur stdDeviation="10.4"/>
<feComposite in2="hardAlpha" operator="arithmetic" k2="-1" k3="1"/>
<feColorMatrix type="matrix" values="0 0 0 0 0.423529 0 0 0 0 0.431373 0 0 0 0 0.552941 0 0 0 0.4 0"/>
<feBlend mode="normal" in2="shape" result="effect3_innerShadow_258_2192"/>
</filter>
<filter id="filter3_d_258_2192" x="905.047" y="19.1884" width="109.201" height="109.202" filterUnits="userSpaceOnUse" color-interpolation-filters="sRGB">
<feFlood flood-opacity="0" result="BackgroundImageFix"/>
<feColorMatrix in="SourceAlpha" type="matrix" values="0 0 0 0 0 0 0 0 0 0 0 0 0 0 0 0 0 0 127 0" result="hardAlpha"/>
<feOffset dx="2.85714" dy="2.28571"/>
<feGaussianBlur stdDeviation="2.28571"/>
<feComposite in2="hardAlpha" operator="out"/>
<feColorMatrix type="matrix" values="0 0 0 0 0.423529 0 0 0 0 0.431373 0 0 0 0 0.552941 0 0 0 0.25 0"/>
<feBlend mode="normal" in2="BackgroundImageFix" result="effect1_dropShadow_258_2192"/>
<feBlend mode="normal" in="SourceGraphic" in2="effect1_dropShadow_258_2192" result="shape"/>
</filter>
<filter id="filter4_ddi_258_2192" x="354.757" y="9.19964" width="167.319" height="167.319" filterUnits="userSpaceOnUse" color-interpolation-filters="sRGB">
<feFlood flood-opacity="0" result="BackgroundImageFix"/>
<feColorMatrix in="SourceAlpha" type="matrix" values="0 0 0 0 0 0 0 0 0 0 0 0 0 0 0 0 0 0 127 0" result="hardAlpha"/>
<feMorphology radius="2.28571" operator="erode" in="SourceAlpha" result="effect1_dropShadow_258_2192"/>
<feOffset dx="16" dy="10.2857"/>
<feGaussianBlur stdDeviation="13.4286"/>
<feComposite in2="hardAlpha" operator="out"/>
<feColorMatrix type="matrix" values="0 0 0 0 0.421679 0 0 0 0 0.432779 0 0 0 0 0.554875 0 0 0 0.25 0"/>
<feBlend mode="normal" in2="BackgroundImageFix" result="effect1_dropShadow_258_2192"/>
<feColorMatrix in="SourceAlpha" type="matrix" values="0 0 0 0 0 0 0 0 0 0 0 0 0 0 0 0 0 0 127 0" result="hardAlpha"/>
<feMorphology radius="13.1429" operator="erode" in="SourceAlpha" result="effect2_dropShadow_258_2192"/>
<feOffset dx="16" dy="10.2857"/>
<feGaussianBlur stdDeviation="3.2"/>
<feComposite in2="hardAlpha" operator="out"/>
<feColorMatrix type="matrix" values="0 0 0 0 0.713712 0 0 0 0 0.7202 0 0 0 0 0.791579 0 0 0 0.45 0"/>
<feBlend mode="normal" in2="effect1_dropShadow_258_2192" result="effect2_dropShadow_258_2192"/>
<feBlend mode="normal" in="SourceGraphic" in2="effect2_dropShadow_258_2192" result="shape"/>
<feColorMatrix in="SourceAlpha" type="matrix" values="0 0 0 0 0 0 0 0 0 0 0 0 0 0 0 0 0 0 127 0" result="hardAlpha"/>
<feMorphology radius="8.57143" operator="dilate" in="SourceAlpha" result="effect3_innerShadow_258_2192"/>
<feOffset dx="1.14286" dy="-4"/>
<feGaussianBlur stdDeviation="10.4"/>
<feComposite in2="hardAlpha" operator="arithmetic" k2="-1" k3="1"/>
<feColorMatrix type="matrix" values="0 0 0 0 0.423529 0 0 0 0 0.431373 0 0 0 0 0.552941 0 0 0 0.4 0"/>
<feBlend mode="normal" in2="shape" result="effect3_innerShadow_258_2192"/>
</filter>
<filter id="filter5_d_258_2192" x="381.291" y="53.8711" width="87.1797" height="61.4263" filterUnits="userSpaceOnUse" color-interpolation-filters="sRGB">
<feFlood flood-opacity="0" result="BackgroundImageFix"/>
<feColorMatrix in="SourceAlpha" type="matrix" values="0 0 0 0 0 0 0 0 0 0 0 0 0 0 0 0 0 0 127 0" result="hardAlpha"/>
<feOffset dx="2.5" dy="2"/>
<feGaussianBlur stdDeviation="2"/>
<feComposite in2="hardAlpha" operator="out"/>
<feColorMatrix type="matrix" values="0 0 0 0 0.423529 0 0 0 0 0.431373 0 0 0 0 0.552941 0 0 0 0.25 0"/>
<feBlend mode="normal" in2="BackgroundImageFix" result="effect1_dropShadow_258_2192"/>
<feBlend mode="normal" in="SourceGraphic" in2="effect1_dropShadow_258_2192" result="shape"/>
</filter>
<filter id="filter6_ddi_258_2192" x="543.386" y="41.7143" width="159" height="158.999" filterUnits="userSpaceOnUse" color-interpolation-filters="sRGB">
<feFlood flood-opacity="0" result="BackgroundImageFix"/>
<feColorMatrix in="SourceAlpha" type="matrix" values="0 0 0 0 0 0 0 0 0 0 0 0 0 0 0 0 0 0 127 0" result="hardAlpha"/>
<feMorphology radius="2.28571" operator="erode" in="SourceAlpha" result="effect1_dropShadow_258_2192"/>
<feOffset dx="16" dy="10.2857"/>
<feGaussianBlur stdDeviation="13.4286"/>
<feComposite in2="hardAlpha" operator="out"/>
<feColorMatrix type="matrix" values="0 0 0 0 0.421679 0 0 0 0 0.432779 0 0 0 0 0.554875 0 0 0 0.25 0"/>
<feBlend mode="normal" in2="BackgroundImageFix" result="effect1_dropShadow_258_2192"/>
<feColorMatrix in="SourceAlpha" type="matrix" values="0 0 0 0 0 0 0 0 0 0 0 0 0 0 0 0 0 0 127 0" result="hardAlpha"/>
<feMorphology radius="13.1429" operator="erode" in="SourceAlpha" result="effect2_dropShadow_258_2192"/>
<feOffset dx="16" dy="10.2857"/>
<feGaussianBlur stdDeviation="3.2"/>
<feComposite in2="hardAlpha" operator="out"/>
<feColorMatrix type="matrix" values="0 0 0 0 0.713712 0 0 0 0 0.7202 0 0 0 0 0.791579 0 0 0 0.45 0"/>
<feBlend mode="normal" in2="effect1_dropShadow_258_2192" result="effect2_dropShadow_258_2192"/>
<feBlend mode="normal" in="SourceGraphic" in2="effect2_dropShadow_258_2192" result="shape"/>
<feColorMatrix in="SourceAlpha" type="matrix" values="0 0 0 0 0 0 0 0 0 0 0 0 0 0 0 0 0 0 127 0" result="hardAlpha"/>
<feMorphology radius="8.57143" operator="dilate" in="SourceAlpha" result="effect3_innerShadow_258_2192"/>
<feOffset dx="1.14286" dy="-4"/>
<feGaussianBlur stdDeviation="10.4"/>
<feComposite in2="hardAlpha" operator="arithmetic" k2="-1" k3="1"/>
<feColorMatrix type="matrix" values="0 0 0 0 0.423529 0 0 0 0 0.431373 0 0 0 0 0.552941 0 0 0 0.4 0"/>
<feBlend mode="normal" in2="shape" result="effect3_innerShadow_258_2192"/>
</filter>
<filter id="filter7_d_258_2192" x="568.553" y="72.0236" width="82.3792" height="82.3804" filterUnits="userSpaceOnUse" color-interpolation-filters="sRGB">
<feFlood flood-opacity="0" result="BackgroundImageFix"/>
<feColorMatrix in="SourceAlpha" type="matrix" values="0 0 0 0 0 0 0 0 0 0 0 0 0 0 0 0 0 0 127 0" result="hardAlpha"/>
<feOffset dx="2.85714" dy="2.28571"/>
<feGaussianBlur stdDeviation="2.28571"/>
<feComposite in2="hardAlpha" operator="out"/>
<feColorMatrix type="matrix" values="0 0 0 0 0.423529 0 0 0 0 0.431373 0 0 0 0 0.552941 0 0 0 0.25 0"/>
<feBlend mode="normal" in2="BackgroundImageFix" result="effect1_dropShadow_258_2192"/>
<feBlend mode="normal" in="SourceGraphic" in2="effect1_dropShadow_258_2192" result="shape"/>
</filter>
<filter id="filter8_ddi_258_2192" x="187.429" y="0.743583" width="145.608" height="145.607" filterUnits="userSpaceOnUse" color-interpolation-filters="sRGB">
<feFlood flood-opacity="0" result="BackgroundImageFix"/>
<feColorMatrix in="SourceAlpha" type="matrix" values="0 0 0 0 0 0 0 0 0 0 0 0 0 0 0 0 0 0 127 0" result="hardAlpha"/>
<feMorphology radius="2.28571" operator="erode" in="SourceAlpha" result="effect1_dropShadow_258_2192"/>
<feOffset dx="16" dy="10.2857"/>
<feGaussianBlur stdDeviation="13.4286"/>
<feComposite in2="hardAlpha" operator="out"/>
<feColorMatrix type="matrix" values="0 0 0 0 0.421679 0 0 0 0 0.432779 0 0 0 0 0.554875 0 0 0 0.25 0"/>
<feBlend mode="normal" in2="BackgroundImageFix" result="effect1_dropShadow_258_2192"/>
<feColorMatrix in="SourceAlpha" type="matrix" values="0 0 0 0 0 0 0 0 0 0 0 0 0 0 0 0 0 0 127 0" result="hardAlpha"/>
<feMorphology radius="13.1429" operator="erode" in="SourceAlpha" result="effect2_dropShadow_258_2192"/>
<feOffset dx="16" dy="10.2857"/>
<feGaussianBlur stdDeviation="3.2"/>
<feComposite in2="hardAlpha" operator="out"/>
<feColorMatrix type="matrix" values="0 0 0 0 0.713712 0 0 0 0 0.7202 0 0 0 0 0.791579 0 0 0 0.45 0"/>
<feBlend mode="normal" in2="effect1_dropShadow_258_2192" result="effect2_dropShadow_258_2192"/>
<feBlend mode="normal" in="SourceGraphic" in2="effect2_dropShadow_258_2192" result="shape"/>
<feColorMatrix in="SourceAlpha" type="matrix" values="0 0 0 0 0 0 0 0 0 0 0 0 0 0 0 0 0 0 127 0" result="hardAlpha"/>
<feMorphology radius="8.57143" operator="dilate" in="SourceAlpha" result="effect3_innerShadow_258_2192"/>
<feOffset dx="1.14286" dy="-4"/>
<feGaussianBlur stdDeviation="10.4"/>
<feComposite in2="hardAlpha" operator="arithmetic" k2="-1" k3="1"/>
<feColorMatrix type="matrix" values="0 0 0 0 0.423529 0 0 0 0 0.431373 0 0 0 0 0.552941 0 0 0 0.4 0"/>
<feBlend mode="normal" in2="shape" result="effect3_innerShadow_258_2192"/>
</filter>
<filter id="filter9_d_258_2192" x="210.385" y="28.8432" width="73.4085" height="73.4077" filterUnits="userSpaceOnUse" color-interpolation-filters="sRGB">
<feFlood flood-opacity="0" result="BackgroundImageFix"/>
<feColorMatrix in="SourceAlpha" type="matrix" values="0 0 0 0 0 0 0 0 0 0 0 0 0 0 0 0 0 0 127 0" result="hardAlpha"/>
<feOffset dx="2.85714" dy="2.28571"/>
<feGaussianBlur stdDeviation="2.28571"/>
<feComposite in2="hardAlpha" operator="out"/>
<feColorMatrix type="matrix" values="0 0 0 0 0.423529 0 0 0 0 0.431373 0 0 0 0 0.552941 0 0 0 0.25 0"/>
<feBlend mode="normal" in2="BackgroundImageFix" result="effect1_dropShadow_258_2192"/>
<feBlend mode="normal" in="SourceGraphic" in2="effect1_dropShadow_258_2192" result="shape"/>
</filter>
<filter id="filter10_ddi_258_2192" x="723.776" y="69.8588" width="145.793" height="145.794" filterUnits="userSpaceOnUse" color-interpolation-filters="sRGB">
<feFlood flood-opacity="0" result="BackgroundImageFix"/>
<feColorMatrix in="SourceAlpha" type="matrix" values="0 0 0 0 0 0 0 0 0 0 0 0 0 0 0 0 0 0 127 0" result="hardAlpha"/>
<feMorphology radius="2.28571" operator="erode" in="SourceAlpha" result="effect1_dropShadow_258_2192"/>
<feOffset dx="16" dy="10.2857"/>
<feGaussianBlur stdDeviation="13.4286"/>
<feComposite in2="hardAlpha" operator="out"/>
<feColorMatrix type="matrix" values="0 0 0 0 0.421679 0 0 0 0 0.432779 0 0 0 0 0.554875 0 0 0 0.25 0"/>
<feBlend mode="normal" in2="BackgroundImageFix" result="effect1_dropShadow_258_2192"/>
<feColorMatrix in="SourceAlpha" type="matrix" values="0 0 0 0 0 0 0 0 0 0 0 0 0 0 0 0 0 0 127 0" result="hardAlpha"/>
<feMorphology radius="13.1429" operator="erode" in="SourceAlpha" result="effect2_dropShadow_258_2192"/>
<feOffset dx="16" dy="10.2857"/>
<feGaussianBlur stdDeviation="3.2"/>
<feComposite in2="hardAlpha" operator="out"/>
<feColorMatrix type="matrix" values="0 0 0 0 0.713712 0 0 0 0 0.7202 0 0 0 0 0.791579 0 0 0 0.45 0"/>
<feBlend mode="normal" in2="effect1_dropShadow_258_2192" result="effect2_dropShadow_258_2192"/>
<feBlend mode="normal" in="SourceGraphic" in2="effect2_dropShadow_258_2192" result="shape"/>
<feColorMatrix in="SourceAlpha" type="matrix" values="0 0 0 0 0 0 0 0 0 0 0 0 0 0 0 0 0 0 127 0" result="hardAlpha"/>
<feMorphology radius="8.57143" operator="dilate" in="SourceAlpha" result="effect3_innerShadow_258_2192"/>
<feOffset dx="1.14286" dy="-4"/>
<feGaussianBlur stdDeviation="10.4"/>
<feComposite in2="hardAlpha" operator="arithmetic" k2="-1" k3="1"/>
<feColorMatrix type="matrix" values="0 0 0 0 0.423529 0 0 0 0 0.431373 0 0 0 0 0.552941 0 0 0 0.4 0"/>
<feBlend mode="normal" in2="shape" result="effect3_innerShadow_258_2192"/>
</filter>
<filter id="filter11_d_258_2192" x="746.741" y="97.9672" width="73.5765" height="73.5769" filterUnits="userSpaceOnUse" color-interpolation-filters="sRGB">
<feFlood flood-opacity="0" result="BackgroundImageFix"/>
<feColorMatrix in="SourceAlpha" type="matrix" values="0 0 0 0 0 0 0 0 0 0 0 0 0 0 0 0 0 0 127 0" result="hardAlpha"/>
<feOffset dx="2.85714" dy="2.28571"/>
<feGaussianBlur stdDeviation="2.28571"/>
<feComposite in2="hardAlpha" operator="out"/>
<feColorMatrix type="matrix" values="0 0 0 0 0.423529 0 0 0 0 0.431373 0 0 0 0 0.552941 0 0 0 0.25 0"/>
<feBlend mode="normal" in2="BackgroundImageFix" result="effect1_dropShadow_258_2192"/>
<feBlend mode="normal" in="SourceGraphic" in2="effect1_dropShadow_258_2192" result="shape"/>
</filter>
<linearGradient id="paint0_linear_258_2192" x1="98.8015" y1="74.9777" x2="10.7649" y2="158.466" gradientUnits="userSpaceOnUse">
<stop stop-color="#EEEFFA"/>
<stop offset="1" stop-color="#DADBE6"/>
</linearGradient>
<linearGradient id="paint1_linear_258_2192" x1="992.801" y1="47.5866" x2="904.765" y2="131.074" gradientUnits="userSpaceOnUse">
<stop stop-color="#EEEFFA"/>
<stop offset="1" stop-color="#DADBE6"/>
</linearGradient>
<linearGradient id="paint2_linear_258_2192" x1="481.801" y1="36.7546" x2="393.765" y2="120.242" gradientUnits="userSpaceOnUse">
<stop stop-color="#EEEFFA"/>
<stop offset="1" stop-color="#DADBE6"/>
</linearGradient>
<linearGradient id="paint3_linear_258_2192" x1="659.801" y1="69.2692" x2="571.765" y2="152.757" gradientUnits="userSpaceOnUse">
<stop stop-color="#EEEFFA"/>
<stop offset="1" stop-color="#DADBE6"/>
</linearGradient>
<linearGradient id="paint4_linear_258_2192" x1="288.801" y1="28.7641" x2="200.765" y2="112.252" gradientUnits="userSpaceOnUse">
<stop stop-color="#EEEFFA"/>
<stop offset="1" stop-color="#DADBE6"/>
</linearGradient>
<linearGradient id="paint5_linear_258_2192" x1="244.078" y1="31.4165" x2="244.078" y2="95.4165" gradientUnits="userSpaceOnUse">
<stop stop-color="#0101FE"/>
<stop offset="1" stop-color="#010198"/>
</linearGradient>
<linearGradient id="paint6_linear_258_2192" x1="825.801" y1="97.4137" x2="737.765" y2="180.902" gradientUnits="userSpaceOnUse">
<stop stop-color="#EEEFFA"/>
<stop offset="1" stop-color="#DADBE6"/>
</linearGradient>
<clipPath id="clip0_258_2192">
<rect x="6" y="61.7085" width="96" height="96" rx="13.7143" transform="rotate(-16.1536 6 61.7085)" fill="white"/>
</clipPath>
<clipPath id="clip1_258_2192">
<rect x="25.8203" y="72.6255" width="64" height="64" rx="32" transform="rotate(-16.1536 25.8203 72.6255)" fill="white"/>
</clipPath>
<clipPath id="clip2_258_2192">
<rect x="900" y="34.3174" width="96" height="96" rx="13.7143" transform="rotate(-11.7832 900 34.3174)" fill="white"/>
</clipPath>
<clipPath id="clip3_258_2192">
<rect x="389" y="23.4854" width="96" height="96" rx="13.7143" transform="rotate(15.5109 389 23.4854)" fill="white"/>
</clipPath>
<clipPath id="clip4_258_2192">
<rect x="396.834" y="42.2644" width="70.7578" height="64" rx="4.57143" transform="rotate(15.5109 396.834 42.2644)" fill="white"/>
</clipPath>
<clipPath id="clip5_258_2192">
<rect x="580.295" y="74.3093" width="64" height="64" rx="32" transform="rotate(9.0148 580.295 74.3093)" fill="white"/>
</clipPath>
<clipPath id="clip6_258_2192">
<rect x="748.891" y="100.253" width="64" height="64" rx="32" transform="rotate(0.389865 748.891 100.253)" fill="white"/>
</clipPath>
</defs>
</svg>
