<svg width="50" height="16" viewBox="0 0 50 16" fill="none" xmlns="http://www.w3.org/2000/svg">
<g clip-path="url(#clip0_877_41961)">
<path d="M23.6372 4.62955C23.5184 4.57129 23.3643 4.57129 23.0554 4.57129H13.4484C13.1395 4.57129 12.9854 4.57129 12.8665 4.62955C12.7527 4.68551 12.6611 4.7775 12.6051 4.89134C12.5469 5.01016 12.5469 5.16502 12.5469 5.47434V15.097C12.5469 15.4064 12.5469 15.5608 12.6051 15.68C12.6607 15.7939 12.7527 15.8859 12.8665 15.9418C12.9854 16.0001 13.1398 16.0001 13.4484 16.0001H23.0554C23.3643 16.0001 23.5184 16.0001 23.6372 15.9418C23.7511 15.8859 23.843 15.7939 23.8986 15.68C23.9569 15.5612 23.9569 15.4064 23.9569 15.097V5.47434C23.9569 5.16502 23.9569 5.01055 23.8986 4.89134C23.843 4.7775 23.7511 4.68551 23.6372 4.62955Z" fill="black"/>
<path d="M36.1919 4.62955C36.0731 4.57129 35.9186 4.57129 35.6101 4.57129H26.0031C25.6941 4.57129 25.5401 4.57129 25.4212 4.62955C25.3074 4.68551 25.2158 4.7775 25.1598 4.89134C25.1016 5.01016 25.1016 5.16502 25.1016 5.47434V15.097C25.1016 15.4064 25.1016 15.5608 25.1598 15.68C25.2158 15.7939 25.3074 15.8859 25.4212 15.9418C25.5401 16.0001 25.6941 16.0001 26.0031 16.0001H35.6101C35.919 16.0001 36.0731 16.0001 36.1919 15.9418C36.3054 15.8859 36.3973 15.7939 36.4533 15.68C36.5116 15.5612 36.5116 15.4064 36.5116 15.097V5.47434C36.5116 5.16502 36.5116 5.01055 36.4533 4.89134C36.3977 4.7775 36.3057 4.68551 36.1919 4.62955Z" fill="black"/>
<path d="M49.0002 4.89134C48.9442 4.7775 48.8526 4.68551 48.7388 4.62955C48.62 4.57129 48.4659 4.57129 48.1569 4.57129H38.55C38.241 4.57129 38.0869 4.57129 37.9681 4.62955C37.8543 4.68551 37.7627 4.7775 37.7067 4.89134C37.6484 5.01016 37.6484 5.16502 37.6484 5.47434V15.097C37.6484 15.4064 37.6484 15.5608 37.7067 15.68C37.7623 15.7939 37.8543 15.8859 37.9681 15.9418C38.0869 16.0001 38.2414 16.0001 38.55 16.0001H48.1569C48.4659 16.0001 48.62 16.0001 48.7388 15.9418C48.8526 15.8859 48.9442 15.7939 49.0002 15.68C49.0584 15.5612 49.0584 15.4064 49.0584 15.097V5.47434C49.0584 5.16502 49.0584 5.01055 49.0002 4.89134Z" fill="black"/>
<path d="M11.0903 4.62985C10.9715 4.57159 10.817 4.57159 10.5085 4.57159H5.46544C5.15689 4.57159 5.00242 4.57159 4.8836 4.51333C4.76976 4.45737 4.67815 4.36538 4.62219 4.25154C4.56393 4.13272 4.56393 3.97786 4.56393 3.66854V0.90305C4.56393 0.593728 4.56393 0.439259 4.50567 0.320054C4.45009 0.206214 4.3581 0.114223 4.24426 0.0582613C4.12543 0 3.97097 0 3.66241 0H0.901516C0.592578 0 0.438493 0 0.31967 0.0582613C0.205831 0.114223 0.114223 0.206214 0.0582613 0.320054C0 0.438876 0 0.593728 0 0.90305V15.0973C0 15.4067 0 15.5611 0.0582613 15.6803C0.113839 15.7942 0.205831 15.8862 0.31967 15.9421C0.438493 16.0004 0.592962 16.0004 0.901516 16.0004H10.5085C10.817 16.0004 10.9715 16.0004 11.0903 15.9421C11.2042 15.8862 11.2962 15.7942 11.3517 15.6803C11.41 15.5615 11.41 15.4067 11.41 15.0973V5.47464C11.41 5.16532 11.41 5.01085 11.3517 4.89165C11.2962 4.77781 11.2042 4.68582 11.0903 4.62985Z" fill="black"/>
</g>
<defs>
<clipPath id="clip0_877_41961">
<rect width="49.0621" height="16" fill="white"/>
</clipPath>
</defs>
</svg>
