<svg width="1440" height="582" viewBox="0 0 1440 582" fill="none" xmlns="http://www.w3.org/2000/svg">
<g filter="url(#filter0_f_1149_2940)">
<path d="M-62 711.995V-23C232.931 194.988 403.473 275.302 720 318.858C1042.2 276.878 1210.66 187.293 1502 -23V711.995C1207.48 516.804 1039.17 426.112 720 370.137C392.583 416.553 222.656 497.12 -62 711.995Z" fill="#20134B"/>
</g>
<g filter="url(#filter1_f_1149_2940)">
<path d="M-62 643.623V45.3716C235.142 211.725 406.109 273.447 720 318.858C1029.54 260.919 1201.99 213.459 1502 45.3716V643.623C1198.05 480.644 1026.36 439.067 720 370.137C405.776 422.455 234.32 483.606 -62 643.623Z" fill="#34294D"/>
</g>
<g filter="url(#filter2_f_1149_2940)">
<path d="M-27.8125 73.1477C175.362 274.425 462.307 326.281 672.996 344.497C451.688 368.072 163.173 419.979 -27.8125 615.847V73.1477Z" fill="#317998"/>
</g>
<g filter="url(#filter3_f_1149_2940)">
<path d="M767.004 344.497C984.149 339.584 1270.67 274.309 1467.81 73.1477V615.847C1264.81 443.88 979.167 377.454 767.004 344.497Z" fill="#317998"/>
</g>
<defs>
<filter id="filter0_f_1149_2940" x="-489.322" y="-450.322" width="2418.64" height="1589.64" filterUnits="userSpaceOnUse" color-interpolation-filters="sRGB">
<feFlood flood-opacity="0" result="BackgroundImageFix"/>
<feBlend mode="normal" in="SourceGraphic" in2="BackgroundImageFix" result="shape"/>
<feGaussianBlur stdDeviation="213.661" result="effect1_foregroundBlur_1149_2940"/>
</filter>
<filter id="filter1_f_1149_2940" x="-211.563" y="-104.191" width="1863.13" height="897.377" filterUnits="userSpaceOnUse" color-interpolation-filters="sRGB">
<feFlood flood-opacity="0" result="BackgroundImageFix"/>
<feBlend mode="normal" in="SourceGraphic" in2="BackgroundImageFix" result="shape"/>
<feGaussianBlur stdDeviation="74.7814" result="effect1_foregroundBlur_1149_2940"/>
</filter>
<filter id="filter2_f_1149_2940" x="-130.37" y="-29.4097" width="905.923" height="747.814" filterUnits="userSpaceOnUse" color-interpolation-filters="sRGB">
<feFlood flood-opacity="0" result="BackgroundImageFix"/>
<feBlend mode="normal" in="SourceGraphic" in2="BackgroundImageFix" result="shape"/>
<feGaussianBlur stdDeviation="51.2787" result="effect1_foregroundBlur_1149_2940"/>
</filter>
<filter id="filter3_f_1149_2940" x="664.447" y="-29.4097" width="905.923" height="747.814" filterUnits="userSpaceOnUse" color-interpolation-filters="sRGB">
<feFlood flood-opacity="0" result="BackgroundImageFix"/>
<feBlend mode="normal" in="SourceGraphic" in2="BackgroundImageFix" result="shape"/>
<feGaussianBlur stdDeviation="51.2787" result="effect1_foregroundBlur_1149_2940"/>
</filter>
</defs>
</svg>
